HIERARCHY
ROOT Hips
{
	OFFSET 0.000000 0.000000 0.000000 
	CHANNELS 6 Xposition Yposition Zposition Zrotation Yrotation Xrotation
	JOINT LeftUpLeg
	{
		OFFSET 1.363060 -1.794630 0.839290 
		CHANNELS 3 Zrotation Yrotation Xrotation
		JOINT LeftLeg
		{
			OFFSET 2.448110 -6.726130 0.000000 
			CHANNELS 3 Zrotation Yrotation Xrotation
			JOINT LeftFoot
			{
				OFFSET 2.562200 -7.039590 0.000000 
				CHANNELS 3 Zrotation Yrotation Xrotation
				JOINT LeftToeBase
				{
					OFFSET 0.157640 -0.433110 2.322550 
					CHANNELS 3 Zrotation Yrotation Xrotation
					End Site
					{
						OFFSET 0.000000 0.000000 0.000000 
					}
				}
			}
		}
	}
	JOINT RightUpLeg
	{
		OFFSET -1.305520 -1.794630 0.839290 
		CHANNELS 3 Zrotation Yrotation Xrotation
		JOINT RightLeg
		{
			OFFSET -2.542530 -6.985550 0.000000 
			CHANNELS 3 Zrotation Yrotation Xrotation
			JOINT RightFoot
			{
				OFFSET -2.568260 -7.056230 0.000000 
				CHANNELS 3 Zrotation Yrotation Xrotation
				JOINT RightToeBase
				{
					OFFSET -0.164730 -0.452590 2.363150 
					CHANNELS 3 Zrotation Yrotation Xrotation
					End Site
					{
						OFFSET 0.000000 0.000000 0.000000 
					}
				}
			}
		}
	}
	JOINT Spine
	{
		OFFSET 0.028270 2.035590 -0.193380 
		CHANNELS 3 Zrotation Yrotation Xrotation
		JOINT Spine1
		{
			OFFSET 0.056720 2.048850 -0.042750 
			CHANNELS 3 Zrotation Yrotation Xrotation
			JOINT Neck1
			{
				OFFSET -0.054170 1.746240 0.172020 
				CHANNELS 3 Zrotation Yrotation Xrotation
				JOINT Head
				{
					OFFSET 0.104070 1.761360 -0.123970 
					CHANNELS 3 Zrotation Yrotation Xrotation
					End Site
					{
						OFFSET 0.000000 0.000000 0.000000 
					}
				}
			}
			JOINT LeftArm
			{
				OFFSET 3.362410 1.200890 -0.311210 
				CHANNELS 3 Zrotation Yrotation Xrotation
				JOINT LeftForeArm
				{
					OFFSET 4.983000 -0.000000 -0.000000 
					CHANNELS 3 Zrotation Yrotation Xrotation
					JOINT LeftHand
					{
						OFFSET 3.483560 -0.000000 -0.000000 
						CHANNELS 3 Zrotation Yrotation Xrotation
						JOINT LeftHandIndex1
						{
							OFFSET 0.715260 -0.000000 -0.000000 
							CHANNELS 3 Zrotation Yrotation Xrotation
							End Site
							{
								OFFSET 0.000000 0.000000 0.000000 
							}
						}
					}
				}
			}
			JOINT RightArm
			{
				OFFSET -3.136600 1.374050 -0.404650 
				CHANNELS 3 Zrotation Yrotation Xrotation
				JOINT RightForeArm
				{
					OFFSET -5.241900 -0.000000 -0.000000 
					CHANNELS 3 Zrotation Yrotation Xrotation
					JOINT RightHand
					{
						OFFSET -3.444170 -0.000000 -0.000000 
						CHANNELS 3 Zrotation Yrotation Xrotation
						JOINT RightHandIndex1
						{
							OFFSET -0.622530 -0.000000 -0.000000 
							CHANNELS 3 Zrotation Yrotation Xrotation
							End Site
							{
								OFFSET 0.000000 0.000000 0.000000 
							}
						}
					}
				}
			}
		}
	}
}
MOTION
Frames: 13
Frame Time: 0.041667
8.757845 17.112739 -0.868915 -179.496275 8.201590 -171.774873 -27.228662 -12.428403 -30.106561 4.773005 14.059729 41.262173 0.376286 -2.024878 -11.715369 10.548500 -17.706900 -61.306200 -0.348010 26.088002 -36.741971 -13.082766 -20.650786 72.141649 -41.765842 25.794849 -160.070463 -0.361700 -3.863700 10.693600 0.145995 -0.093246 -2.602232 3.412674 -0.292434 3.523864 12.181362 -5.436952 22.220141 4.914400 -1.378100 8.715100 -60.509501 1.877661 27.601468 19.841059 -31.301990 -7.224358 -0.712683 1.300482 3.781361 -7.125000 0.000000 0.000000 64.215775 -13.554985 -3.476757 -7.277283 23.120799 -3.777332 0.735553 -0.838793 17.874711 7.125000 0.000000 0.000000 
8.716049 17.190222 -1.082286 178.882184 8.367312 -174.577340 -30.139711 -9.543198 -25.893393 4.396783 13.359644 39.365165 0.333826 -2.508332 -11.056817 10.499800 -17.681500 -61.146100 -1.963289 26.524862 -45.480107 -18.102284 -22.342327 85.527533 -43.356120 37.072645 130.288800 -1.757100 -8.340600 23.753400 -0.003858 -1.372784 -2.166441 3.458323 -0.886207 3.754713 11.971262 -3.762067 21.588027 4.928700 -0.716100 8.030200 -61.019064 -2.317396 26.363020 21.579727 -32.853378 -8.155472 -0.706637 1.310212 3.212984 -7.125000 0.000000 0.000000 65.746528 -17.252000 -3.569777 -7.550136 23.648292 -3.831803 0.712871 -0.907022 18.224220 7.125000 0.000000 0.000000 
8.704154 17.249378 -1.265971 177.939176 7.588535 -176.605055 -31.796762 -7.417072 -22.785664 4.211616 12.902364 38.270125 0.288206 -3.299145 -10.439411 10.374500 -17.615100 -60.732800 -3.344165 25.892801 -53.638706 -19.495094 -21.776094 91.237911 -11.107674 7.859212 64.342442 -4.885600 -13.253800 40.326100 -0.089018 -2.713776 -1.789262 3.385751 -1.510044 4.022629 11.344746 -2.322781 21.442323 4.638100 -0.075100 7.824400 -60.885580 -7.883504 24.943133 22.597754 -33.551578 -8.705898 -0.639562 1.363523 3.884488 -7.125000 0.000000 0.000000 67.612088 -20.626231 -4.673900 -7.703186 23.967002 -3.890574 0.655872 -0.981788 18.247898 7.125000 0.000000 0.000000 
8.723015 17.286244 -1.392643 177.825441 6.249813 -177.264818 -32.150709 -6.621556 -21.445082 4.204488 12.804189 38.106933 0.256240 -4.063895 -10.116592 10.528100 -17.696300 -61.239200 -1.617990 23.814916 -58.400784 -13.841115 -22.255664 75.126775 -0.706449 -12.951415 -27.563303 -11.443800 -18.145500 64.214600 -0.044297 -3.988680 -1.586842 3.393313 -2.066391 3.970026 11.172280 -1.162856 20.840160 4.476200 0.458100 7.449200 -60.578479 -14.027930 23.846676 23.305170 -33.825688 -9.003184 -0.482765 1.418779 6.344036 -7.125000 0.000000 0.000000 69.915534 -24.052274 -6.094567 -8.035220 24.500129 -4.042306 0.596645 -1.072237 17.582259 7.125000 0.000000 0.000000 
8.716371 17.322038 -1.574721 178.059165 6.246836 -177.506768 -32.053254 -5.610009 -20.149930 4.047901 12.546869 37.334069 0.275452 -4.249893 -10.406277 10.585300 -17.726100 -61.427200 -0.046585 23.989277 -62.594725 -8.200894 -19.963381 58.192464 -2.676153 -1.019149 -32.765456 -0.128200 2.307800 -6.357200 -0.044244 -4.872393 -1.421138 3.118119 -2.442126 4.213776 10.835464 0.061608 20.474506 4.273900 1.021600 7.160800 -60.496063 -20.198022 22.016962 24.146938 -34.184478 -9.430759 -0.388300 1.477746 6.735695 -7.125000 0.000000 0.000000 71.606949 -26.775028 -8.786841 -7.325930 23.619383 -3.831807 0.469420 -1.121712 18.563181 7.125000 0.000000 0.000000 
8.699546 17.364262 -1.781554 178.381553 6.567074 -177.595633 -31.975538 -4.615424 -18.859538 3.881677 12.279501 36.519221 0.313980 -4.467623 -10.949962 10.581000 -17.723900 -61.413200 1.117504 25.855008 -65.324210 -3.267094 -15.854003 40.598481 -2.833401 -2.343831 -35.053812 -0.585200 4.898300 -13.618700 -0.044823 -5.727473 -1.338244 2.835812 -2.798056 4.344511 10.520184 1.112748 20.386012 4.123900 1.511800 7.126300 -61.016484 -25.370675 20.889050 25.119217 -34.710651 -9.998294 -0.543655 1.490453 7.422749 -7.125000 0.000000 0.000000 72.652683 -29.539337 -11.380512 -6.595185 22.601219 -3.592287 0.348340 -1.122051 20.708590 7.125000 0.000000 0.000000 
8.696223 17.405093 -2.017216 179.184064 7.307200 -177.111253 -31.507148 -3.657819 -18.009863 3.736512 12.216253 35.980550 0.363403 -4.731567 -11.676143 10.547600 -17.706500 -61.303500 4.784248 29.249889 -71.369438 -0.573247 -11.666623 30.447441 -4.203371 -24.078719 30.378078 -8.705600 -16.614500 55.066300 -0.002952 -6.416600 -1.332592 2.628250 -2.983268 4.334447 10.052864 2.145349 20.097142 3.899400 1.970800 6.893400 -62.240218 -29.771357 19.736265 27.615054 -36.516348 -11.467437 -0.512651 1.511989 4.804062 -7.125000 0.000000 0.000000 73.425555 -32.488267 -13.699912 -6.091767 21.833105 -3.430559 0.338208 -1.128589 22.874937 7.125000 0.000000 0.000000 
8.697402 17.429741 -2.265738 -179.973419 7.380343 -176.816336 -30.853617 -3.018869 -17.143383 3.691556 12.208998 35.837163 0.431515 -4.940008 -12.571154 10.426600 -17.642800 -60.904800 10.716142 31.518861 -76.152304 1.024281 -7.731419 19.642505 -5.934016 -27.452380 38.848061 -0.067300 -1.673700 4.604600 0.089754 -7.258044 -1.380557 2.382198 -3.282648 4.244647 9.845978 2.933491 19.735425 3.843900 2.297300 6.602100 -63.649310 -33.753538 19.710542 29.905794 -38.026169 -12.823358 -0.460010 1.533677 4.121596 -7.125000 0.000000 0.000000 74.001845 -35.387176 -16.431376 -5.418274 20.738617 -3.203176 0.273979 -1.101839 26.102707 7.125000 0.000000 0.000000 
8.717014 17.450425 -2.546303 -179.735624 5.750433 -177.902606 -30.888123 -2.658197 -14.661551 3.693630 12.027616 35.653646 0.495650 -5.451951 -13.303461 10.395200 -17.626200 -60.801300 12.257560 31.585345 -78.606862 0.749941 -7.649344 17.628250 -3.871592 -13.095157 25.914577 -8.012800 16.128600 -52.608700 0.158435 -8.278864 -1.256806 2.214565 -3.719802 4.395985 9.585669 3.266660 19.872010 3.705300 2.464900 6.696100 -64.669110 -38.272027 21.358496 31.328139 -38.701774 -13.559863 -0.389503 1.576550 5.330725 -7.125000 0.000000 0.000000 75.363810 -37.925016 -20.364866 -4.501002 19.170811 -2.897745 0.153839 -1.100587 29.491840 7.125000 0.000000 0.000000 
8.757095 17.432206 -2.822474 179.867796 3.267789 -178.775348 -31.771782 -3.464394 -12.451411 3.771795 11.992671 35.880869 0.544027 -5.953161 -13.837010 10.254200 -17.550400 -60.334700 7.962015 31.229390 -82.439104 0.678106 -6.951751 15.121274 -2.876071 -7.962765 21.274770 -12.892200 18.742900 -68.790400 0.394077 -9.950964 -1.365373 3.112559 -4.554332 4.287558 9.511172 4.176237 19.861251 3.829400 2.829000 6.546800 -66.824822 -42.430739 22.691863 31.966834 -38.737532 -13.834676 -0.291656 1.645520 6.975227 -7.125000 0.000000 0.000000 74.754926 -40.348727 -22.332167 -3.586866 17.521655 -2.537987 0.115834 -0.994795 32.479589 7.125000 0.000000 0.000000 
8.803070 17.421811 -3.121257 -179.999592 0.744432 -179.730980 -32.038845 -4.379301 -9.815090 3.812835 11.868489 35.880725 0.563473 -6.342754 -14.006231 9.980300 -17.398800 -59.422700 4.432179 30.595539 -85.687336 0.193976 -8.994977 19.708873 -0.675527 -1.775378 6.287487 -10.360100 17.607400 -60.685200 0.779070 -11.364078 -1.427999 3.207444 -7.032888 4.081565 9.330960 4.055962 19.831492 3.642100 2.806900 6.557300 -69.533143 -47.035947 27.531137 32.577031 -38.745287 -13.990368 -0.233264 1.710326 5.817794 -7.125000 0.000000 0.000000 76.972666 -42.517888 -27.658311 -2.735836 15.754307 -2.292903 -0.020403 -1.026016 36.270615 7.125000 0.000000 0.000000 
8.854296 17.446138 -3.421112 179.976871 -1.105729 178.768487 -32.432697 -5.018039 -6.694558 3.905842 11.815914 36.134706 0.566226 -6.450040 -13.970857 9.871300 -17.336800 -59.057300 0.418946 31.237907 -88.741638 -0.363052 -10.857753 25.131169 -0.382960 -2.874345 0.054006 -6.295400 14.708600 -46.156200 0.950317 -11.785361 -1.389190 3.965022 -7.300185 4.101860 9.247987 4.087933 19.929113 3.620100 2.813200 6.584000 -73.878390 -50.332349 33.015867 33.882244 -39.549893 -14.686549 -0.202918 1.725017 4.350218 -7.125000 0.000000 0.000000 78.289104 -43.882681 -33.107731 -2.061305 13.862338 -2.017952 -0.141742 -0.986123 40.670677 7.125000 0.000000 0.000000 
8.887518 17.508081 -3.745080 179.975491 -2.349762 177.422227 -32.791464 -5.311819 -3.836752 4.135203 11.928151 36.952182 0.492127 -7.310214 -13.334244 9.118700 -16.883500 -56.499600 -1.304468 32.393426 -91.967038 -1.325450 -12.849046 31.485320 -0.415218 -4.107937 0.996882 -7.805400 15.974200 -51.858600 1.124057 -12.110627 -1.505964 4.898125 -7.456761 3.679755 9.201088 4.444472 19.931725 3.614100 2.975600 6.511300 -78.355103 -52.163427 37.743717 35.686824 -40.901029 -15.730852 -0.092150 1.710506 5.692889 -7.125000 0.000000 0.000000 78.956444 -45.202476 -37.266505 -1.667790 12.451369 -1.849472 -0.215099 -0.936666 44.354452 7.125000 0.000000 0.000000 
